<svg width="22" height="27" viewBox="0 0 22 27" fill="none" xmlns="http://www.w3.org/2000/svg">
<path d="M16.4164 0.0131872C16.3605 -0.0493972 14.3429 0.0378917 12.5873 1.94342C10.8316 3.84731 11.1017 6.03118 11.1412 6.08718C11.1808 6.14317 13.6446 6.23046 15.2175 4.0153C16.7903 1.80014 16.4724 0.0774187 16.4164 0.0131872ZM21.8745 19.337C21.7954 19.1789 18.0453 17.3046 18.3944 13.7011C18.7436 10.0959 21.1531 9.1077 21.191 9.00065C21.2289 8.8936 20.2077 7.69955 19.1257 7.09512C18.3312 6.66897 17.4519 6.42482 16.5515 6.38033C16.3736 6.37539 15.756 6.22387 14.4862 6.57138C13.6496 6.80031 11.7638 7.54144 11.245 7.57109C10.7246 7.60073 9.17641 6.71137 7.51133 6.47586C6.44575 6.26999 5.31594 6.69161 4.50728 7.01606C3.70027 7.33887 2.1653 8.25787 1.09148 10.7003C0.0176669 13.1411 0.57928 17.0082 0.981139 18.2104C1.383 19.4111 2.01049 21.3792 3.07772 22.8153C4.02637 24.436 5.28465 25.5608 5.81003 25.9429C6.33541 26.325 7.81767 26.5786 8.84537 26.0533C9.67215 25.546 11.1643 25.2545 11.7539 25.2759C12.3419 25.2973 13.5013 25.5295 14.6888 26.1636C15.6292 26.4881 16.5186 26.353 17.4096 25.9907C18.3006 25.6267 19.5901 24.2466 21.0955 21.4484C21.667 20.1473 21.9272 19.444 21.8745 19.337Z" fill="white"/>
</svg>
