<svg width="23" height="23" viewBox="0 0 23 23" fill="none" xmlns="http://www.w3.org/2000/svg">
<path d="M22.7992 11.2585C22.7992 11.9217 22.4621 12.5848 21.7879 12.9163C19.5405 14.2425 15.2704 16.5634 12.1241 18.1106C9.42718 19.4368 5.71896 20.9841 3.13444 22.0893C2.9097 22.1998 2.57259 22.3103 2.34785 22.3103C1.89837 22.3103 1.33652 22.0893 0.999408 21.7577C0.437557 21.2051 0.325187 20.4315 0.549927 19.6579L2.9097 12.8058C3.02207 12.3637 3.47155 12.1427 3.92103 12.1427H9.53955C9.98903 12.1427 10.4385 11.8111 10.4385 11.2585C10.4385 10.706 10.1014 10.3744 9.53955 10.3744H3.92103C3.47155 10.3744 3.02207 10.0429 2.9097 9.60079L0.549927 2.7487C0.325187 2.08559 0.437557 1.31197 1.11178 0.759384C1.67363 0.206796 2.46022 0.0962788 3.13444 0.427831C5.26948 1.31197 9.31481 3.08025 12.1241 4.40646C15.2704 5.95371 19.5405 8.38509 21.7879 9.60079C22.4621 9.93234 22.7992 10.5954 22.7992 11.2585Z" fill="#030D45"/>
</svg>
