<svg width="20" height="20" viewBox="0 0 20 20" fill="none" xmlns="http://www.w3.org/2000/svg">
<path d="M7.04082 0.505027C6.22449 0.303007 5.20408 0.100987 4.38776 0.100987C3.57143 0.100987 2.55102 0.303007 1.73469 0.505027C1.02041 0.606037 0.510204 1.2121 0.408163 1.91917C0.306122 2.72725 0 4.34341 0 5.45452C0 6.56563 0.204082 7.97978 0.306122 8.98988C0.408163 9.69695 0.918367 10.303 1.63265 10.404C2.34694 10.606 3.46939 10.707 4.28571 10.707C5.10204 10.707 6.12245 10.505 6.93878 10.404C7.65306 10.303 8.16327 9.69695 8.26531 8.98988C8.46939 7.97978 8.57143 6.56563 8.57143 5.45452C8.57143 4.34341 8.36735 2.72725 8.26531 1.91917C8.26531 1.2121 7.7551 0.606037 7.04082 0.505027Z" fill="#030D45"/>
<path d="M18.2653 9.59579C17.551 9.39377 16.4286 9.29276 15.6123 9.29276C14.7959 9.29276 13.7755 9.49478 12.9592 9.59579C12.2449 9.6968 11.7347 10.3029 11.6327 11.0099C11.4286 12.02 11.3265 13.4342 11.3265 14.5453C11.3265 15.6564 11.5306 17.0705 11.6327 18.0806C11.7347 18.7877 12.2449 19.3938 12.9592 19.4948C13.6735 19.6968 14.7959 19.7978 15.6123 19.7978C16.4286 19.7978 17.449 19.5958 18.2653 19.4948C18.9796 19.3938 19.4898 18.7877 19.5918 18.0806C19.7959 17.0705 19.898 15.6564 19.898 14.5453C19.898 13.4342 19.7959 12.02 19.5918 11.0099C19.4898 10.3029 18.9796 9.6968 18.2653 9.59579Z" fill="#030D45"/>
<path d="M7.14286 13.6362C6.32653 13.4342 5.30612 13.3332 4.38776 13.3332C3.46939 13.3332 2.44898 13.5352 1.63265 13.6362C1.02041 13.7372 0.510204 14.2423 0.306122 14.8483C0.102041 15.5554 0 16.1614 0 16.6665C0 17.1715 0.102041 17.6766 0.306122 18.4847C0.510204 19.0907 1.02041 19.4948 1.63265 19.6968C2.44898 19.8988 3.46939 19.9998 4.38776 19.9998C5.30612 19.9998 6.32653 19.7978 7.14286 19.6968C7.7551 19.5958 8.26531 19.0907 8.46939 18.4847C8.67347 17.7776 8.77551 17.1715 8.77551 16.6665C8.77551 16.1614 8.67347 15.6564 8.46939 14.8483C8.26531 14.1412 7.7551 13.7372 7.14286 13.6362Z" fill="#030D45"/>
<path d="M12.8571 6.36351C13.6735 6.56553 14.6939 6.66654 15.6122 6.66654C16.5306 6.66654 17.551 6.46452 18.3673 6.36351C18.9796 6.2625 19.4898 5.75745 19.6939 5.15139C19.898 4.44432 20 3.83826 20 3.33321C20 2.82816 19.898 2.32311 19.6939 1.51503C19.4898 0.908969 18.9796 0.504929 18.3673 0.302908C17.551 0.100888 16.5306 -0.00012207 15.6122 -0.00012207C14.6939 -0.00012207 13.6735 0.201898 12.8571 0.302908C12.2449 0.403919 11.7347 0.908969 11.5306 1.51503C11.3265 2.2221 11.2245 2.82816 11.2245 3.33321C11.2245 3.83826 11.3265 4.34331 11.5306 5.15139C11.7347 5.85846 12.2449 6.2625 12.8571 6.36351Z" fill="#030D45"/>
</svg>
