<svg width="22" height="22" viewBox="0 0 22 22" fill="none" xmlns="http://www.w3.org/2000/svg">
<path d="M21.0727 8.97751C21.2078 9.70108 21.2813 10.4576 21.2813 11.247C21.2813 17.422 17.1486 21.8128 10.9066 21.8128C9.48709 21.8133 8.08141 21.534 6.76987 20.991C5.45833 20.4479 4.26665 19.6518 3.2629 18.6481C2.25916 17.6443 1.46303 16.4526 0.920008 15.1411C0.376986 13.8296 0.0977122 12.4239 0.098145 11.0044C0.0977122 9.58486 0.376986 8.17918 0.920008 6.86765C1.46303 5.55611 2.25916 4.36442 3.2629 3.36068C4.26665 2.35694 5.45833 1.56081 6.76987 1.01779C8.08141 0.474764 9.48709 0.195491 10.9066 0.195923C13.825 0.195923 16.2636 1.26974 18.1346 3.01332L15.0877 6.0602V6.05251C13.9535 4.97211 12.514 4.41763 10.9066 4.41763C7.34038 4.41763 4.44173 7.43047 4.44173 10.9978C4.44173 14.564 7.34038 17.5834 10.9066 17.5834C14.1423 17.5834 16.3449 15.7333 16.7972 13.1926H10.9066V8.97751H21.0738H21.0727Z" fill="white"/>
</svg>
