<svg width="20" height="20" viewBox="0 0 20 20" fill="none" xmlns="http://www.w3.org/2000/svg">
<path d="M9.98433 8.1167L11.8858 10.021C11.8459 10.0627 11.7947 10.1189 11.7407 10.1729L2.18134 19.7329C1.82522 20.089 1.6362 20.089 1.28121 19.7329C0.92622 19.3767 0.56223 19.0206 0.205555 18.664C-0.0689847 18.3877 -0.0689854 18.1627 0.208367 17.8848C3.43008 14.6631 6.65235 11.4415 9.87519 8.22021C9.91401 8.17858 9.95564 8.1437 9.98433 8.1167Z" fill="#B8B7BE"/>
<path d="M13.8184 3.14307C13.9534 3.21958 14.0789 3.26008 14.1633 3.34335C14.9982 4.16846 15.8289 4.99752 16.6555 5.83051C16.8806 6.05555 16.8744 6.30871 16.6482 6.53599C15.6164 7.57039 14.5822 8.60403 13.5456 9.63693C13.3099 9.87209 13.0612 9.87209 12.8266 9.63693C12.0049 8.81894 11.1848 7.99907 10.3664 7.17733C10.1234 6.93317 10.1262 6.6907 10.3732 6.44598C11.4005 5.41608 12.4304 4.38806 13.4629 3.36191C13.5563 3.27021 13.6913 3.22014 13.8184 3.14307Z" fill="#B8B7BE"/>
<path d="M12.4798 3.01078L10.6165 4.87235C10.5906 4.84816 10.5389 4.80372 10.4905 4.75534C9.19242 3.45878 7.89567 2.16147 6.60024 0.863406C6.5124 0.783468 6.44243 0.68589 6.3949 0.577053C6.28238 0.253569 6.57773 -0.0732901 6.93103 0.0144725C7.46717 0.148929 8.00725 0.289012 8.5192 0.492666C9.97684 1.07212 11.255 1.94637 12.4393 2.96802C12.454 2.98108 12.4675 2.99539 12.4798 3.01078Z" fill="#B8B7BE"/>
<path d="M15.1206 9.38643C15.749 8.75747 16.3633 8.14369 16.9957 7.51135C17.1273 7.66888 17.2725 7.83652 17.4109 8.0098C18.4528 9.31386 19.3208 10.7152 19.8142 12.3242C19.884 12.5493 19.934 12.7855 19.983 13.0185C20.0392 13.2851 19.9582 13.4753 19.763 13.581C19.5678 13.6868 19.376 13.6412 19.1768 13.4421C18.1375 12.4039 17.099 11.3656 16.0612 10.3271C15.7428 10.0075 15.4255 9.69135 15.1206 9.38643Z" fill="#B8B7BE"/>
</svg>
