<svg width="20" height="16" viewBox="0 0 20 16" fill="none" xmlns="http://www.w3.org/2000/svg">
<path d="M13.8513 7.68821C14.0596 7.79211 14.372 7.79211 14.6845 7.79211C16.5591 7.79211 18.1213 6.23366 18.1213 4.36353C18.1213 2.49341 16.5591 0.934963 14.6845 0.934963C14.5803 0.934963 14.5803 0.934963 14.4762 0.934963C15.1011 1.76613 15.4135 2.80509 15.4135 3.94795C15.4135 5.2986 14.8928 6.64925 13.8513 7.68821Z" fill="#030D45"/>
<path d="M16.0383 9.14291H15.3093C16.6632 10.1819 17.4964 11.8442 17.4964 13.7143C17.4964 14.1299 17.3922 14.5455 17.2881 14.9611C18.3295 14.7533 18.9544 14.5455 19.371 14.3377C19.7876 14.1299 19.9959 13.6104 19.9959 13.091C20.1 10.9091 18.2254 9.14291 16.0383 9.14291Z" fill="#030D45"/>
<path d="M5.31142 7.79226C5.62386 7.79226 5.83215 7.79226 6.14458 7.68836C5.20728 6.6494 4.58241 5.40265 4.58241 3.84421C4.58241 2.70135 4.89484 1.66239 5.51971 0.83122C5.51971 0.83122 5.41557 0.83122 5.31142 0.83122C3.43681 0.83122 1.87463 2.38966 1.87463 4.25979C1.87463 6.12992 3.33267 7.79226 5.31142 7.79226Z" fill="#030D45"/>
<path d="M4.58238 9.14291H3.95751C1.77047 9.14291 0 10.9091 0 13.091C0 13.6104 0.20829 14.1299 0.62487 14.3377C1.04145 14.5455 1.66632 14.8572 2.70777 14.9611C2.60363 14.5455 2.49948 14.1299 2.49948 13.7143C2.49948 11.9481 3.2285 10.2858 4.58238 9.14291Z" fill="#030D45"/>
<path d="M7.60264 6.85714C8.22751 7.37662 9.06067 7.68831 9.99798 7.68831C10.9353 7.68831 11.7684 7.37662 12.3933 6.85714C13.3306 6.12987 13.8513 5.09091 13.8513 3.84416C13.8513 2.90909 13.5389 1.97403 12.914 1.35065C12.185 0.51948 11.1436 0 9.99798 0C8.85238 0 7.70679 0.51948 7.08192 1.35065C6.45705 1.97403 6.04047 2.90909 6.04047 3.84416C6.04047 5.09091 6.66534 6.12987 7.60264 6.85714Z" fill="#030D45"/>
<path d="M12.0807 9.35065C11.8724 9.35065 11.6642 9.35065 11.4559 9.35065H8.33151C8.12322 9.35065 7.91493 9.35065 7.70664 9.35065C5.51959 9.66234 3.85327 11.5325 3.85327 13.7143C3.85327 14.3377 4.16571 14.8571 4.58229 15.0649C5.3113 15.4805 6.76933 16 9.78954 16C12.8097 16 14.2678 15.4805 14.9968 15.0649C15.5175 14.7532 15.7258 14.2338 15.7258 13.7143C16.0382 11.5325 14.2678 9.66234 12.0807 9.35065Z" fill="#030D45"/>
</svg>
