<svg width="16" height="20" viewBox="0 0 16 20" fill="none" xmlns="http://www.w3.org/2000/svg">
<path d="M15.954 6.87173C15.954 6.56404 15.954 6.35891 15.954 6.15379C15.7468 2.87173 13.1568 0.205067 9.84173 -6.10352e-05C9.22014 -6.10352e-05 8.59856 -6.10352e-05 8.08057 -6.10352e-05C6.52662 -6.10352e-05 4.35108 0.205067 2.90072 0.307631C1.45036 0.410195 0.414388 1.43584 0.310791 2.76917C0.207194 4.4102 0 7.58968 0 9.94866C0 12.2051 0.207194 15.3846 0.310791 17.1281C0.414388 18.4615 1.45036 19.5897 2.79712 19.6922C4.24748 19.7948 6.42302 19.9999 7.97698 19.9999C9.53093 19.9999 11.7065 19.7948 13.1568 19.6922C14.5036 19.5897 15.5396 18.4615 15.6432 17.1281C15.7468 15.4871 15.954 12.3076 15.954 9.94866C16.0576 9.12814 15.954 8.1025 15.954 6.87173ZM4.86906 11.1794H6.94101C7.3554 11.1794 7.76978 11.4871 7.76978 11.9999C7.76978 12.5128 7.45899 12.8205 6.94101 12.8205H4.86906C4.45468 12.8205 4.04029 12.5128 4.04029 11.9999C4.04029 11.4871 4.45468 11.1794 4.86906 11.1794ZM9.01295 15.8974H4.86906C4.45468 15.8974 4.04029 15.5897 4.04029 15.0769C4.04029 14.564 4.35108 14.2564 4.86906 14.2564H9.01295C9.42734 14.2564 9.84173 14.564 9.84173 15.0769C9.84173 15.5897 9.42734 15.8974 9.01295 15.8974ZM11.0849 6.05122C10.3597 6.05122 9.84173 5.43584 9.84173 4.82045V1.5384C12.2245 1.74353 14.1928 3.58968 14.4 6.05122H11.0849Z" fill="#B3B6C7"/>
</svg>
