<svg width="16" height="16" viewBox="0 0 16 16" fill="none" xmlns="http://www.w3.org/2000/svg">
<path d="M15.4777 10.9694C15.3027 9.69388 15.0404 7.82313 14.778 6.46258C14.6905 5.86735 14.5156 5.18707 14.2532 4.59184C13.5536 1.87075 10.9298 0 8.0437 0C5.07012 0 2.44637 1.87075 1.7467 4.5068C1.57179 5.18707 1.39687 5.86735 1.22195 6.46258C0.959579 7.82313 0.697204 9.69388 0.522287 10.9694C0.347371 12.1599 1.22195 13.2653 2.44637 13.5204C3.32095 13.6905 4.45791 13.7755 5.59487 13.9456V14.2857C5.59487 15.5612 6.64437 16.6667 8.0437 16.6667C9.35558 16.6667 10.4925 15.6463 10.4925 14.2857V13.9456C11.6295 13.8605 12.679 13.6905 13.641 13.5204C14.778 13.2653 15.6526 12.1599 15.4777 10.9694ZM9.0932 14.2857C9.0932 14.881 8.56845 15.3061 8.0437 15.3061C7.51895 15.3061 6.90674 14.7959 6.90674 14.2857V14.0306C7.25658 14.0306 7.69387 14.0306 8.0437 14.0306C8.39353 14.0306 8.74337 14.0306 9.0932 14.0306V14.2857Z" fill="#030D45"/>
</svg>
