<svg width="20" height="20" viewBox="0 0 20 20" fill="none" xmlns="http://www.w3.org/2000/svg">
<path fill-rule="evenodd" clip-rule="evenodd" d="M0.440443 8.28409L3.74755 2.28409C4.35499 1.18202 5.49767 0.5 6.73669 0.5H13.2633C14.5023 0.5 15.645 1.18202 16.2525 2.28409L19.5596 8.28409C20.1468 9.34953 20.1468 10.6505 19.5596 11.7159L16.2525 17.7159C15.645 18.818 14.5023 19.5 13.2633 19.5H6.73669C5.49767 19.5 4.35499 18.818 3.74755 17.7159L0.440443 11.7159C-0.146814 10.6505 -0.146814 9.34953 0.440443 8.28409ZM1.72151 9.01948L5.02861 3.01948C5.37572 2.38972 6.02868 2 6.73669 2H13.2633C13.9713 2 14.6243 2.38972 14.9714 3.01948L18.2785 9.01948C18.6141 9.6283 18.6141 10.3717 18.2785 10.9805L14.9714 16.9805C14.6243 17.6103 13.9713 18 13.2633 18H6.73669C6.02868 18 5.37572 17.6103 5.02861 16.9805L1.72151 10.9805C1.38593 10.3717 1.38593 9.62831 1.72151 9.01948Z" fill="#030D45"/>
<path fill-rule="evenodd" clip-rule="evenodd" d="M10 7.75C8.78236 7.75 7.79526 8.75736 7.79526 10C7.79526 11.2426 8.78236 12.25 10 12.25C11.2176 12.25 12.2047 11.2426 12.2047 10C12.2047 8.75736 11.2176 7.75 10 7.75ZM6.32544 10C6.32544 7.92893 7.9706 6.25 10 6.25C12.0294 6.25 13.6746 7.92893 13.6746 10C13.6746 12.0711 12.0294 13.75 10 13.75C7.9706 13.75 6.32544 12.0711 6.32544 10Z" fill="#030D45"/>
</svg>
