<svg width="16" height="13" viewBox="0 0 16 13" fill="none" xmlns="http://www.w3.org/2000/svg">
<path fill-rule="evenodd" clip-rule="evenodd" d="M8.03653 1.98001C7.12506 1.98001 6.38618 2.72367 6.38618 3.64101C6.38618 4.55835 7.12506 5.30201 8.03653 5.30201C8.94799 5.30201 9.68688 4.55835 9.68688 3.64101C9.68688 2.72367 8.94799 1.98001 8.03653 1.98001ZM5.28594 3.64101C5.28594 2.1121 6.51742 0.872681 8.03653 0.872681C9.55563 0.872681 10.7871 2.1121 10.7871 3.64101C10.7871 5.16991 9.55563 6.40934 8.03653 6.40934C6.51742 6.40934 5.28594 5.16991 5.28594 3.64101Z" fill="white"/>
<path fill-rule="evenodd" clip-rule="evenodd" d="M6.95126 8.624C5.82898 8.624 4.9192 9.53966 4.9192 10.6692C4.9192 10.6912 4.92105 10.709 4.92351 10.7222C4.92384 10.724 4.92417 10.7257 4.9245 10.7272C5.21831 10.8909 6.04973 11.2078 8.03653 11.2078C10.0233 11.2078 10.8547 10.8909 11.1486 10.7272C11.1489 10.7257 11.1492 10.724 11.1495 10.7222C11.152 10.709 11.1539 10.6912 11.1539 10.6692C11.1539 9.53966 10.2441 8.624 9.12179 8.624H6.95126ZM3.81896 10.6692C3.81896 8.92809 5.22134 7.51667 6.95126 7.51667H9.12179C10.8517 7.51667 12.2541 8.92809 12.2541 10.6692C12.2541 10.9798 12.1495 11.42 11.7339 11.6659C11.2289 11.9646 10.1866 12.3151 8.03653 12.3151C5.88641 12.3151 4.84419 11.9646 4.33918 11.6659C3.92356 11.42 3.81896 10.9798 3.81896 10.6692Z" fill="white"/>
<path fill-rule="evenodd" clip-rule="evenodd" d="M11.3563 2.02011C11.4355 1.72492 11.7376 1.5503 12.0309 1.63008C13.0348 1.90316 13.7211 2.8954 13.7211 4.01012C13.7211 5.18824 12.9177 6.26658 11.7696 6.40539C11.4679 6.44185 11.194 6.2253 11.1578 5.9217C11.1215 5.61811 11.3367 5.34243 11.6384 5.30596C12.1406 5.24524 12.6208 4.72743 12.6208 4.01012C12.6208 3.32916 12.2069 2.82502 11.7438 2.69906C11.4505 2.61927 11.277 2.3153 11.3563 2.02011Z" fill="white"/>
<path fill-rule="evenodd" clip-rule="evenodd" d="M12.631 7.96435C12.6892 7.66423 12.978 7.46838 13.2762 7.52691C14.3866 7.74486 15.188 8.72393 15.188 9.86254V10.1619C15.188 10.446 15.1034 10.8754 14.7091 11.129C14.4627 11.2876 14.0892 11.4509 13.5245 11.5659C13.2267 11.6265 12.9365 11.4327 12.8763 11.133C12.816 10.8333 13.0086 10.5412 13.3064 10.4805C13.7252 10.3953 13.9618 10.2881 14.0837 10.2162L14.0838 10.2153C14.0861 10.2019 14.0878 10.1841 14.0878 10.1619V9.86254C14.0878 9.25376 13.6593 8.73029 13.0656 8.61376C12.7674 8.55523 12.5728 8.26448 12.631 7.96435Z" fill="white"/>
<path fill-rule="evenodd" clip-rule="evenodd" d="M4.71677 6.00013C4.6375 6.29532 4.33548 6.46994 4.04218 6.39016C3.03827 6.11708 2.35199 5.12484 2.35199 4.01012C2.35199 2.832 3.15533 1.75366 4.30347 1.61485C4.60513 1.57838 4.87904 1.79494 4.91527 2.09854C4.95151 2.40213 4.73634 2.67781 4.43469 2.71428C3.93248 2.775 3.45222 3.29281 3.45222 4.01012C3.45222 4.69108 3.86617 5.19522 4.32924 5.32118C4.62254 5.40096 4.79604 5.70494 4.71677 6.00013Z" fill="white"/>
<path fill-rule="evenodd" clip-rule="evenodd" d="M3.44205 7.96435C3.38389 7.66423 3.095 7.46838 2.7968 7.52691C1.68641 7.74486 0.88501 8.72393 0.88501 9.86254V10.1619C0.88501 10.446 0.969671 10.8754 1.36393 11.129C1.61037 11.2876 1.98386 11.4509 2.54852 11.5659C2.84631 11.6265 3.13655 11.4327 3.1968 11.133C3.25705 10.8333 3.06448 10.5412 2.7667 10.4805C2.34789 10.3953 2.11129 10.2881 1.98937 10.2162L1.9892 10.2153C1.98693 10.2019 1.98524 10.1841 1.98524 10.1619V9.86254C1.98524 9.25376 2.41372 8.73029 3.00741 8.61376C3.30561 8.55523 3.50021 8.26448 3.44205 7.96435Z" fill="white"/>
</svg>
