<svg width="16" height="16" viewBox="0 0 16 16" fill="none" xmlns="http://www.w3.org/2000/svg">
<path fill-rule="evenodd" clip-rule="evenodd" d="M8 1.65385C4.49512 1.65385 1.65385 4.49512 1.65385 8C1.65385 9.05 1.9084 10.0389 2.35865 10.9098C2.40098 10.9917 2.42308 11.0826 2.42308 11.1748V13.5769H4.82523C4.91742 13.5769 5.00827 13.599 5.09016 13.6414C5.96115 14.0916 6.95 14.3462 8 14.3462C11.5049 14.3462 14.3462 11.5049 14.3462 8C14.3462 4.49512 11.5049 1.65385 8 1.65385ZM0.5 8C0.5 3.85786 3.85786 0.5 8 0.5C12.1421 0.5 15.5 3.85786 15.5 8C15.5 12.1421 12.1421 15.5 8 15.5C6.81216 15.5 5.68736 15.2234 4.68791 14.7308H1.84615C1.52753 14.7308 1.26923 14.4725 1.26923 14.1538V11.3121C0.776554 10.3126 0.5 9.18784 0.5 8Z" fill="white"/>
<path d="M6.46154 8C6.46154 8.42484 6.11714 8.76923 5.69231 8.76923C5.26747 8.76923 4.92308 8.42484 4.92308 8C4.92308 7.57517 5.26747 7.23077 5.69231 7.23077C6.11714 7.23077 6.46154 7.57517 6.46154 8Z" fill="white"/>
<path d="M8.76923 8C8.76923 8.42484 8.42484 8.76923 8 8.76923C7.57517 8.76923 7.23077 8.42484 7.23077 8C7.23077 7.57517 7.57517 7.23077 8 7.23077C8.42484 7.23077 8.76923 7.57517 8.76923 8Z" fill="white"/>
<path d="M11.0769 8C11.0769 8.42484 10.7325 8.76923 10.3077 8.76923C9.88286 8.76923 9.53846 8.42484 9.53846 8C9.53846 7.57517 9.88286 7.23077 10.3077 7.23077C10.7325 7.23077 11.0769 7.57517 11.0769 8Z" fill="white"/>
</svg>
