<svg width="21" height="21" viewBox="0 0 21 21" fill="none" xmlns="http://www.w3.org/2000/svg">
<path d="M17.7678 3.62588C13.8715 -0.270425 7.52201 -0.270425 3.62571 3.62588C-0.270595 7.52218 -0.270594 13.8717 3.62571 17.768C7.52201 21.6643 13.8715 21.6643 17.7678 17.768C21.6641 13.8717 21.6641 7.52218 17.7678 3.62588ZM11.4183 13.5831C11.4183 14.016 11.0575 14.3768 10.6246 14.3768C10.4082 14.3046 10.2639 14.3046 10.1195 14.1603C9.97524 14.016 9.90309 13.7996 9.90309 13.6553L9.90308 11.4906L7.73847 11.4906C7.30555 11.4906 6.94478 11.1299 6.94478 10.6969C6.94478 10.264 7.30555 9.90326 7.73847 9.90326L9.90309 9.90326L9.90309 7.73864C9.90309 7.30572 10.2639 6.94495 10.6968 6.94495C11.1297 6.94495 11.4905 7.30572 11.4905 7.73864L11.4905 9.90326L13.6551 9.90326C14.088 9.90326 14.4488 10.264 14.4488 10.6969C14.4488 11.1299 14.088 11.4906 13.6551 11.4906L11.4905 11.4906L11.4183 13.5831Z" fill="#FF7E2F"/>
</svg>
